<svg xmlns="http://www.w3.org/2000/svg" viewBox="0 0 413.75 316.97"><defs><style>.cls-1{stroke:#000;stroke-miterlimit:10;}.cls-2{font-size:12px;font-family:MyriadPro-Regular, Myriad Pro;}.cls-3{font-size:56px;font-family:MyriadPro-Semibold, Myriad Pro;font-weight:600;}</style></defs><title>b_10_r</title><g id="B_4"><rect class="cls-1" x="0.5" y="283.63" width="100" height="7"/><rect class="cls-1" x="100.5" y="283.63" width="100" height="7"/><rect class="cls-1" x="200.5" y="283.63" width="100" height="7"/><rect class="cls-1" x="300.5" y="283.63" width="100" height="7"/><rect class="cls-1" x="45" y="371" width="28" height="7" transform="translate(-370.5 328.63) rotate(-90)"/><rect class="cls-1" x="176" y="371" width="28" height="7" transform="translate(-239.5 459.63) rotate(-90)"/><text class="cls-2" transform="translate(1.78 313.52)">r</text><text class="cls-2" transform="translate(133.62 313.65)">l</text><text class="cls-2" transform="translate(263.45 313.97)">r</text><text class="cls-2" transform="translate(396 313.97)">l</text><rect class="cls-1" x="307" y="371" width="28" height="7" transform="translate(-108.5 590.63) rotate(-90)"/><rect class="cls-1" x="339.5" y="272.5" width="225" height="7" transform="translate(121 623.13) rotate(-90)"/><text class="cls-3" transform="translate(381.5 46.87)">B</text></g><g id="B_2"><rect class="cls-1" x="0.5" y="283.63" width="100" height="7"/><rect class="cls-1" x="100.5" y="283.63" width="100" height="7"/><rect class="cls-1" x="200.5" y="283.63" width="100" height="7"/><rect class="cls-1" x="300.5" y="283.63" width="100" height="7"/><rect class="cls-1" x="45" y="371" width="28" height="7" transform="translate(-370.5 328.63) rotate(-90)"/><rect class="cls-1" x="77.5" y="272.5" width="225" height="7" transform="translate(-141 361.13) rotate(-90)"/><text class="cls-2" transform="translate(1.78 313.52)">r</text><text class="cls-2" transform="translate(133.62 313.65)">l</text><text class="cls-2" transform="translate(263.45 313.97)">r</text><text class="cls-2" transform="translate(396 313.97)">l</text><rect class="cls-1" x="307" y="371" width="28" height="7" transform="translate(-108.5 590.63) rotate(-90)"/><rect class="cls-1" x="438" y="371" width="28" height="7" transform="translate(22.5 721.63) rotate(-90)"/><text class="cls-3" transform="translate(119.5 46.87)">B</text></g></svg>