<svg xmlns="http://www.w3.org/2000/svg" viewBox="0 0 413 302.83"><defs><style>.cls-1{stroke:#000;stroke-miterlimit:10;}.cls-2{font-size:12px;font-family:MyriadPro-Regular, Myriad Pro;}</style></defs><title>t_7</title><g id="T_3"><rect class="cls-1" x="0.5" y="269.5" width="100" height="7"/><rect class="cls-1" x="100.5" y="269.5" width="100" height="7"/><rect class="cls-1" x="200.5" y="269.5" width="100" height="7"/><rect class="cls-1" x="300.5" y="269.5" width="100" height="7"/><rect class="cls-1" x="45" y="371" width="28" height="7" transform="translate(-370.5 314.5) rotate(-90)"/><rect class="cls-1" x="176" y="371" width="28" height="7" transform="translate(-239.5 445.5) rotate(-90)"/><circle class="cls-1" cx="266.5" cy="16.5" r="16"/><text class="cls-2" transform="translate(1.78 299.38)">r</text><text class="cls-2" transform="translate(133.62 299.52)">l</text><text class="cls-2" transform="translate(263.45 299.83)">r</text><text class="cls-2" transform="translate(396 299.83)">l</text><rect class="cls-1" x="208.5" y="272.5" width="225" height="7" transform="translate(-10 478) rotate(-90)"/><rect class="cls-1" x="438" y="371" width="28" height="7" transform="translate(22.5 707.5) rotate(-90)"/></g><g id="T_4"><rect class="cls-1" x="0.5" y="269.5" width="100" height="7"/><rect class="cls-1" x="100.5" y="269.5" width="100" height="7"/><rect class="cls-1" x="200.5" y="269.5" width="100" height="7"/><rect class="cls-1" x="300.5" y="269.5" width="100" height="7"/><rect class="cls-1" x="45" y="371" width="28" height="7" transform="translate(-370.5 314.5) rotate(-90)"/><rect class="cls-1" x="176" y="371" width="28" height="7" transform="translate(-239.5 445.5) rotate(-90)"/><circle class="cls-1" cx="396.5" cy="16.5" r="16"/><text class="cls-2" transform="translate(1.78 299.38)">r</text><text class="cls-2" transform="translate(133.62 299.52)">l</text><text class="cls-2" transform="translate(263.45 299.83)">r</text><text class="cls-2" transform="translate(396 299.83)">l</text><rect class="cls-1" x="307" y="371" width="28" height="7" transform="translate(-108.5 576.5) rotate(-90)"/><rect class="cls-1" x="339.5" y="272.5" width="225" height="7" transform="translate(121 609) rotate(-90)"/></g></svg>