<svg xmlns="http://www.w3.org/2000/svg" viewBox="0 0 425 302.83"><defs><style>.cls-1{stroke:#000;stroke-miterlimit:10;}.cls-2{font-size:12px;font-family:MyriadPro-Regular, Myriad Pro;}</style></defs><title>t_8</title><g id="T_1"><rect class="cls-1" x="12.5" y="269.5" width="100" height="7"/><rect class="cls-1" x="112.5" y="269.5" width="100" height="7"/><rect class="cls-1" x="212.5" y="269.5" width="100" height="7"/><rect class="cls-1" x="312.5" y="269.5" width="100" height="7"/><rect class="cls-1" x="-53.5" y="272.5" width="225" height="7" transform="translate(-260 216) rotate(-90)"/><rect class="cls-1" x="176" y="371" width="28" height="7" transform="translate(-227.5 445.5) rotate(-90)"/><circle class="cls-1" cx="16.5" cy="16.5" r="16"/><text class="cls-2" transform="translate(13.78 299.38)">r</text><text class="cls-2" transform="translate(145.62 299.52)">l</text><text class="cls-2" transform="translate(275.45 299.83)">r</text><text class="cls-2" transform="translate(408 299.83)">l</text><rect class="cls-1" x="307" y="371" width="28" height="7" transform="translate(-96.5 576.5) rotate(-90)"/><rect class="cls-1" x="438" y="371" width="28" height="7" transform="translate(34.5 707.5) rotate(-90)"/></g><g id="T_4"><rect class="cls-1" x="12.5" y="269.5" width="100" height="7"/><rect class="cls-1" x="112.5" y="269.5" width="100" height="7"/><rect class="cls-1" x="212.5" y="269.5" width="100" height="7"/><rect class="cls-1" x="312.5" y="269.5" width="100" height="7"/><rect class="cls-1" x="45" y="371" width="28" height="7" transform="translate(-358.5 314.5) rotate(-90)"/><rect class="cls-1" x="176" y="371" width="28" height="7" transform="translate(-227.5 445.5) rotate(-90)"/><circle class="cls-1" cx="408.5" cy="16.5" r="16"/><text class="cls-2" transform="translate(13.78 299.38)">r</text><text class="cls-2" transform="translate(145.62 299.52)">l</text><text class="cls-2" transform="translate(275.45 299.83)">r</text><text class="cls-2" transform="translate(408 299.83)">l</text><rect class="cls-1" x="307" y="371" width="28" height="7" transform="translate(-96.5 576.5) rotate(-90)"/><rect class="cls-1" x="339.5" y="272.5" width="225" height="7" transform="translate(133 609) rotate(-90)"/></g></svg>